<?xml version="1.0" encoding="UTF-8" standalone="no"?>
<svg
   xmlns:dc="http://purl.org/dc/elements/1.1/"
   xmlns:cc="http://creativecommons.org/ns#"
   xmlns:rdf="http://www.w3.org/1999/02/22-rdf-syntax-ns#"
   xmlns:svg="http://www.w3.org/2000/svg"
   xmlns="http://www.w3.org/2000/svg"
   viewBox="0 0 682.66669 682.66669"
   height="682.66669"
   width="682.66669"
   xml:space="preserve"
   id="svg2"
   version="1.1"><metadata
     id="metadata8"><rdf:RDF><cc:Work
         rdf:about=""><dc:format>image/svg+xml</dc:format><dc:type
           rdf:resource="http://purl.org/dc/dcmitype/StillImage" /></cc:Work></rdf:RDF></metadata><defs
     id="defs6"><clipPath
       id="clipPath30"
       clipPathUnits="userSpaceOnUse"><path
         id="path28"
         d="M 0,512 H 512 V 0 H 0 Z" /></clipPath><clipPath
       id="clipPath46"
       clipPathUnits="userSpaceOnUse"><path
         id="path44"
         d="M 0,512 H 512 V 0 H 0 Z" /></clipPath><clipPath
       id="clipPath62"
       clipPathUnits="userSpaceOnUse"><path
         id="path60"
         d="M 0,512 H 512 V 0 H 0 Z" /></clipPath></defs><g
     transform="matrix(1.3333333,0,0,-1.3333333,0,682.66667)"
     id="g10"><g
       transform="translate(32.7968,125.0996)"
       id="g12"><path
         id="path14"
         style="fill:#000000;fill-opacity:1;fill-rule:nonzero;stroke:none"
         d="M 0,0 223.929,-53.834 V 243.574 L 0,258.7 Z" /></g><g
       transform="translate(479.8196,125.0996)"
       id="g16"><path
         id="path18"
         style="fill:#000000;fill-opacity:1;fill-rule:nonzero;stroke:none"
         d="M 0,0 -213.884,-53.834 V 243.574 L 0,258.7 Z" /></g><g
       transform="translate(262.0719,377.1539)"
       id="g20"><path
         id="path22"
         style="fill:#000000;fill-opacity:1;fill-rule:nonzero;stroke:none"
         d="M 0,0 -229.445,15.462 0,34.697 213.744,15.462 Z" /></g><g
       id="g24"><g
         clip-path="url(#clipPath30)"
         id="g26"><g
           transform="translate(258.0822,423.2147)"
           id="g32"><path
             id="path34"
             style="fill:none;stroke:#000000;stroke-width:9.82199955;stroke-linecap:butt;stroke-linejoin:miter;stroke-miterlimit:10;stroke-dasharray:none;stroke-opacity:1"
             d="m 0,0 -225.266,-21.359 c -7.111,-1.012 -12.393,-7.078 -12.393,-14.233 v -262.047 c 0,-6.564 4.463,-12.294 10.846,-13.927 l 225.291,-53.708 c 2.355,-0.602 4.824,-0.602 7.18,0 l 217.631,53.709 c 6.383,1.632 10.847,7.362 10.847,13.926 v 262.047 c 0,7.155 -5.282,13.221 -12.394,14.233 L 4.087,0 C 2.731,0.193 1.355,0.193 0,0 Z" /></g></g></g><g
       transform="translate(194.5759,174.5004)"
       id="g36"><path
         id="path38"
         style="fill:#ffffff;fill-opacity:1;fill-rule:nonzero;stroke:none"
         d="m 0,0 1.423,-5.607 -7.032,-2.012 4.089,-7.601 -4.151,-2.483 -3.679,6.988 -3.843,-5.409 -2.823,3.313 3.45,5.685 -4.725,2.256 1.159,4.361 4.804,-2.013 0.289,7.689 4.684,0.532 -0.316,-8.225 z" /></g><g
       id="g40"><g
         clip-path="url(#clipPath46)"
         id="g42"><g
           transform="translate(119.0323,233.7395)"
           id="g48"><path
             id="path50"
             style="fill:#ffffff;fill-opacity:1;fill-rule:nonzero;stroke:none"
             d="m 0,0 c -4.921,-4.139 -7.452,-11.27 -7.658,-21.379 -0.165,-8.095 1.46,-14.925 4.887,-20.556 3.448,-5.663 7.958,-8.974 13.581,-9.921 5.595,-0.941 10.141,0.832 13.612,5.374 3.517,4.604 5.445,11.056 5.749,19.35 0.342,9.308 -1.336,16.697 -5.019,22.082 C 21.491,0.3 16.927,3.21 11.502,3.699 7.161,4.091 3.331,2.848 0,0 M 17.981,28.578 C 30.049,27.917 40.05,22.304 47.752,11.65 55.557,0.851 59.114,-12.469 58.353,-28.05 57.605,-43.352 52.962,-56.019 44.614,-65.975 c -8.097,-9.656 -19.81,-12.808 -34.837,-9.771 -15.469,3.126 -26.323,12.895 -33.022,29.321 -5.173,12.753 -7.649,28.577 -7.45,47.757 0.119,11.396 0.588,20.722 1.416,27.939 1.492,12.985 4.269,23.91 8.368,32.755 3.593,7.686 8.324,13.986 14.238,18.879 6.039,4.995 13.346,7.658 21.984,7.909 12.837,0.374 23.245,-3.503 30.955,-11.73 7.825,-8.35 11.974,-19.571 12.356,-33.471 l -28.33,0.908 c 0.097,2.709 -0.662,5.717 -2.275,9.014 -2.749,5.327 -7.051,8.009 -12.844,8.061 C 6.687,61.671 0.628,55.873 -3.097,44.372 -5.09,38.125 -6.547,28.941 -7.478,16.878 c 3.128,4.32 6.762,7.424 10.915,9.296 4.208,1.896 9.05,2.705 14.544,2.404" /></g></g></g><g
       transform="translate(383.6949,265.4699)"
       id="g52"><path
         id="path54"
         style="fill:#ffffff;fill-opacity:1;fill-rule:nonzero;stroke:none"
         d="m 0,0 1.399,-37.785 45.833,4.299 z m 3.096,-83.633 -20.703,-5.314 -0.699,18.176 -34.77,-6.824 -1.413,34.569 34.989,3.281 -2.471,64.249 L 1.462,21.789 63.16,-28.65 64.011,-54.616 2.469,-66.694 Z" /></g><g
       id="g56"><g
         clip-path="url(#clipPath62)"
         id="g58"><g
           transform="translate(309.3123,395.9398)"
           id="g64"><path
             id="path66"
             style="fill:#ffffff;fill-opacity:1;fill-rule:nonzero;stroke:none"
             d="M 0,0 C 0.43,0.462 -1.107,0.914 -4.67,1.361 -9.668,1.989 -15.129,2.245 -21.063,2.113 -24.561,2.034 -29.072,1.769 -34.653,1.31 l -19.351,2.232 c 9.167,0.69 17.595,1.073 25.324,1.166 C -14.698,4.878 -2.448,4.206 8.207,2.771 16.17,1.698 20.056,0.656 20.149,-0.388 20.241,-1.425 16.684,-2.334 9.295,-3.141 3.457,-3.779 -3.623,-4.166 -12.094,-4.293 -17.89,-4.384 -25.926,-4.346 -36.475,-4.171 l -13.28,0.218 c -8.75,0.144 -15.096,0.231 -18.813,0.259 -3.781,0.028 -7.578,0 -11.391,-0.087 l 45.763,-4.153 -16.797,-1.837 -84.017,6.9 c 10.296,0.801 21.281,1.34 32.825,1.628 11.819,0.363 28.021,0.308 47.642,-0.123 15.72,-0.344 25.72,-0.512 30.747,-0.523 7.538,-0.011 13.447,0.211 17.866,0.66 C -2.394,-0.87 -0.431,-0.462 0,0" /></g></g></g></g></svg>